# xmcd
#
# Track frame offsets: 
#        150
#        20031
#        36047
#        47379
#        65211
#        78768
#        95604
#        119672
#        142218
#        161250
#        181688
#
# Disc length: 2712 seconds
#
# Revision: 0
# Processed by: cddbd v1.5.2PL0 Copyright (c) Steve Scherf et al.
# Submitted via: ExactAudioCopy v0.95b3
#
DISCID=900a960b
DTITLE=Jo-El Sonnier - 1990-09-21: The Cubby Bear Lounge, Chicago, IL
DYEAR=1990
DGENRE=Country
TTITLE0=Jambalaya
TTITLE1=Baby Hold On
TTITLE2=So Long Baby Goodbye
TTITLE3=No More One More Time
TTITLE4=Knock Knock Knock
TTITLE5=Good Hearted Man
TTITLE6=Come On Joe
TTITLE7=Jolie Blon
TTITLE8=Scene Of The Crime
TTITLE9=Unknown
TTITLE10=Unknown
EXTD=
EXTT0=
EXTT1=
EXTT2=
EXTT3=
EXTT4=
EXTT5=
EXTT6=
EXTT7=
EXTT8=
EXTT9=
EXTT10=
PLAYORDER=
